<svg viewBox="0 0 362 59" fill="none" xmlns="http://www.w3.org/2000/svg">
<path d="M4.80916 36.1617C13.2116 40.7057 21.9874 43.8266 31.629 42.0849C36.8819 41.2397 41.949 38.6491 46.7451 35.7535C50.9311 33.3998 55.1513 30.4701 59.8281 29.5908C67.7245 28.0349 75.1263 34.832 81.4954 39.5448C89.5416 45.2239 99.1134 49.5481 109.094 46.9594C118.787 44.3536 124.754 36.3244 133.414 31.6342C142.379 26.673 151.9 31.8613 160.676 34.9822C166.046 37.0344 171.722 38.8155 177.482 39.1565C183.531 39.5146 189.411 37.8393 195.309 35.876C201.206 33.9127 207.103 31.9494 213.203 31.4433C219.879 30.9713 226.487 31.6515 233.111 32.0437C261.644 33.4436 290.177 34.8435 318.422 36.2263C325.335 36.6355 332.265 36.7567 339.178 37.1659C348.395 37.7115 349.247 23.3096 340.03 22.764C311.209 21.347 282.1 19.913 253.28 18.4961C239.437 17.9657 225.086 16.2491 211.158 17.159C204.482 17.6309 198.297 19.5771 192.094 21.8114C186.773 23.8089 181.486 25.2302 175.76 24.3131C164.594 22.496 155.176 15.5795 143.655 14.8975C132.133 14.2155 123.676 20.363 114.879 27.3575C111.846 29.7794 108.219 32.4552 104.423 33.0976C100.915 33.7572 97.8151 32.4175 94.7319 30.7897C86.3465 25.9576 79.5376 18.9065 70.1517 16.3276C58.4956 13.0362 48.9374 18.2514 39.0741 23.7375C36.9896 24.7703 34.8881 26.0912 32.5327 26.8189C30.7533 27.5807 28.1267 28.0033 26.9746 27.9351C22.925 27.9845 19.9301 27.5273 15.8605 25.2539C2.92343 18.0269 -4.21508 28.6236 4.80916 36.1617Z" fill="#cfcfbd"/>
<path d="M307.298 14.1784C322.579 19.7077 336.86 27.4901 349.886 36.9326C350.125 32.9001 350.381 28.5795 350.619 24.547C331.961 32.114 313.067 38.7998 293.935 44.6045C290.105 45.8231 287.596 49.1431 288.51 53.2438C289.169 56.7514 293.319 59.8876 297.149 58.669C317.738 52.6616 337.819 45.4679 357.375 37.3759C362.713 35.0905 362.275 27.8384 358.108 24.9903C343.981 14.6155 328.565 6.47679 312.149 0.59125C303.085 -2.54669 298.522 11.0575 307.298 14.1784Z" fill="#cfcfbd"/>
</svg>
