<svg xmlns="http://www.w3.org/2000/svg" fill="none" viewBox="0 0 634 130"><rect width="169" height="39" x="228" y="45" fill="#FFF8E2" rx="19.5"/><path fill="#BA7506" d="M288.791 61.9018H288.939L291.844 72H294.235L298.059 57.742H295.421L292.98 68.354H292.842L289.996 57.742H287.734L284.927 68.354H284.779L282.339 57.742H279.681L283.505 72H285.906L288.791 61.9018Z"/><path fill="#BA7506" d="M300.46 72H302.901V61.1904H300.46V72ZM301.675 59.4316C302.575 59.4316 303.187 58.8586 303.187 58.078C303.187 57.2974 302.575 56.7243 301.675 56.7243C300.786 56.7243 300.164 57.2974 300.164 58.078C300.164 58.8586 300.786 59.4316 301.675 59.4316Z"/><path fill="#BA7506" d="M306.724 58.5424V61.2596H305.015V63.216H306.724V69.1148C306.724 71.2095 307.713 72.0494 310.193 72.0494C310.667 72.0494 311.121 72 311.477 71.9308V70.014C311.181 70.0436 310.993 70.0634 310.647 70.0634C309.62 70.0634 309.165 69.5891 309.165 68.522V63.216H311.477V61.2596H309.165V58.5424H306.724Z"/><path fill="#BA7506" d="M314.026 72H316.477V65.7257C316.477 64.1744 317.376 63.1271 318.987 63.1271C320.409 63.1271 321.16 63.9669 321.16 65.6071V72H323.611V65.0242C323.611 62.4552 322.208 60.9928 319.896 60.9928C318.285 60.9928 317.129 61.724 316.615 62.9393H316.437V57.0108H314.026V72Z"/><path fill="#BA7506" d="M331.051 62.9196C332.523 62.9196 333.492 63.9472 333.541 65.5478H328.452C328.561 63.9669 329.589 62.9196 331.051 62.9196ZM333.561 69.0259C333.205 69.8262 332.365 70.2709 331.15 70.2709C329.539 70.2709 328.502 69.1445 328.442 67.3461V67.2177H335.991V66.4272C335.991 63.0184 334.144 60.973 331.061 60.973C327.929 60.973 325.982 63.1567 325.982 66.6347C325.982 70.1128 327.899 72.2174 331.081 72.2174C333.63 72.2174 335.418 70.9922 335.883 69.0259H333.561Z"/><path fill="#BA7506" d="M338.452 72H340.902V65.7553C340.902 64.2436 342.009 63.2555 343.6 63.2555C344.015 63.2555 344.667 63.3247 344.854 63.3938V61.1213C344.627 61.0521 344.192 61.0126 343.837 61.0126C342.444 61.0126 341.278 61.803 340.981 62.8702H340.813V61.1904H338.452V72Z"/><path fill="#BA7506" d="M346.9 72H349.34V61.1904H346.9V72ZM348.115 59.4316C349.014 59.4316 349.627 58.8586 349.627 58.078C349.627 57.2974 349.014 56.7243 348.115 56.7243C347.226 56.7243 346.603 57.2974 346.603 58.078C346.603 58.8586 347.226 59.4316 348.115 59.4316Z"/><path fill="#BA7506" d="M352.384 72H354.834V65.7059C354.834 64.1151 355.753 63.1073 357.215 63.1073C358.707 63.1073 359.399 63.9373 359.399 65.5874V72H361.849V65.0044C361.849 62.4255 360.535 60.973 358.124 60.973C356.514 60.973 355.427 61.7141 354.913 62.9196H354.745V61.1904H352.384V72Z"/><path fill="#BA7506" d="M369.398 69.846C367.689 69.846 366.721 68.5417 366.721 66.4766C366.721 64.4116 367.689 63.0974 369.398 63.0974C371.098 63.0974 372.135 64.4116 372.135 66.4766C372.135 68.5417 371.108 69.846 369.398 69.846ZM369.398 76.1104C372.55 76.1104 374.546 74.5394 374.546 72.0395V61.1904H372.185V62.9196H372.017C371.424 61.7437 370.139 61.0126 368.667 61.0126C365.91 61.0126 364.201 63.1666 364.201 66.4766C364.201 69.7274 365.901 71.8419 368.628 71.8419C370.129 71.8419 371.305 71.2095 371.928 70.0535H372.096V72.0988C372.096 73.4525 371.118 74.2429 369.438 74.2429C368.094 74.2429 367.225 73.7687 367.066 73.0276H364.606C364.804 74.8852 366.622 76.1104 369.398 76.1104Z"/><path fill="#BA7506" d="M258.195 63.8325L256.079 67.9768C255.824 68.4812 255.083 68.4646 254.849 67.9517L252.428 62.686L251.151 65.6753H247.146L254.913 73.451C255.215 73.7553 255.705 73.7553 256.007 73.451L263.779 65.6753H259.135L258.195 63.8325ZM264.728 56.749L264.626 56.6448C262.434 54.4517 258.846 54.4517 256.65 56.6448L255.462 57.8372L254.275 56.6489C252.083 54.4517 248.491 54.4517 246.299 56.6489L246.197 56.749C244.124 58.8253 244.035 62.1315 245.886 64.3412H250.244L251.772 60.7473C252.002 60.2095 252.777 60.197 253.023 60.7306L255.5 66.1215L257.586 62.0398C257.837 61.5478 258.552 61.5478 258.803 62.0398L259.978 64.3412H265.038C266.89 62.1315 266.8 58.8253 264.728 56.749V56.749Z"/><rect width="165" height="39" x="429" y="45" fill="#FFEAE9" rx="19.5"/><path fill="#DB3E3E" d="M484.683 57.742V72H490.029C494.297 72 496.738 69.3816 496.738 64.8068C496.738 60.3308 494.268 57.742 490.029 57.742H484.683ZM487.233 59.9454H489.693C492.489 59.9454 494.139 61.7338 494.139 64.8463C494.139 68.0279 492.529 69.7966 489.693 69.7966H487.233V59.9454Z"/><path fill="#DB3E3E" d="M504.05 72.2174C507.281 72.2174 509.247 70.1029 509.247 66.5952C509.247 63.0974 507.271 60.973 504.05 60.973C500.838 60.973 498.852 63.1073 498.852 66.5952C498.852 70.1029 500.809 72.2174 504.05 72.2174ZM504.05 70.1622C502.34 70.1622 501.362 68.8579 501.362 66.5952C501.362 64.3424 502.34 63.0282 504.05 63.0282C505.749 63.0282 506.727 64.3424 506.727 66.5952C506.727 68.8579 505.759 70.1622 504.05 70.1622Z"/><path fill="#DB3E3E" d="M511.717 72H514.168V65.7553C514.168 64.2436 515.274 63.2555 516.865 63.2555C517.28 63.2555 517.932 63.3246 518.12 63.3938V61.1212C517.893 61.0521 517.458 61.0125 517.102 61.0125C515.709 61.0125 514.543 61.803 514.247 62.8701H514.079V61.1904H511.717V72Z"/><path fill="#DB3E3E" d="M520.274 72H522.724V65.4293C522.724 64.1052 523.624 63.1073 524.839 63.1073C526.044 63.1073 526.795 63.8286 526.795 65.0143V72H529.177V65.2712C529.177 64.0361 530.016 63.1073 531.291 63.1073C532.605 63.1073 533.267 63.7989 533.267 65.1921V72H535.708V64.5696C535.708 62.3267 534.403 60.973 532.24 60.973C530.738 60.973 529.493 61.7536 528.959 62.9393H528.791C528.337 61.724 527.299 60.973 525.807 60.973C524.374 60.973 523.268 61.7042 522.803 62.9393H522.635V61.1904H520.274V72Z"/><path fill="#DB3E3E" d="M542.308 70.2511C541.221 70.2511 540.441 69.7076 540.441 68.7986C540.441 67.9192 541.083 67.4252 542.456 67.3362L544.897 67.1782V68.0378C544.897 69.2926 543.79 70.2511 542.308 70.2511ZM541.587 72.1778C543 72.1778 544.185 71.5652 544.788 70.5179H544.956V72H547.318V64.619C547.318 62.3267 545.756 60.973 542.98 60.973C540.411 60.973 538.623 62.1884 538.425 64.0953H540.737C540.964 63.3642 541.735 62.9689 542.861 62.9689C544.185 62.9689 544.897 63.5618 544.897 64.619V65.5281L542.11 65.696C539.482 65.8541 538.01 66.9805 538.01 68.9369C538.01 70.9131 539.502 72.1778 541.587 72.1778Z"/><path fill="#DB3E3E" d="M550.272 72H552.722V65.7059C552.722 64.1151 553.641 63.1073 555.104 63.1073C556.596 63.1073 557.287 63.9373 557.287 65.5873V72H559.738V65.0044C559.738 62.4255 558.424 60.973 556.013 60.973C554.402 60.973 553.315 61.7141 552.801 62.9195H552.634V61.1904H550.272V72Z"/><path fill="#DB3E3E" d="M563.423 58.5423V61.2596H561.714V63.216H563.423V69.1148C563.423 71.2095 564.411 72.0494 566.891 72.0494C567.366 72.0494 567.82 72 568.176 71.9308V70.0139C567.88 70.0436 567.692 70.0633 567.346 70.0633C566.318 70.0633 565.864 69.5891 565.864 68.5219V63.216H568.176V61.2596H565.864V58.5423H563.423Z"/><path fill="#DB3E3E" d="M459.195 63.8325L457.079 67.9768C456.824 68.4812 456.083 68.4646 455.849 67.9517L453.428 62.686L452.151 65.6753H448.146L455.913 73.451C456.215 73.7553 456.705 73.7553 457.007 73.451L464.779 65.6753H460.135L459.195 63.8325ZM465.728 56.749L465.626 56.6448C463.434 54.4517 459.846 54.4517 457.65 56.6448L456.462 57.8372L455.275 56.6489C453.083 54.4517 449.491 54.4517 447.299 56.6489L447.197 56.749C445.124 58.8253 445.035 62.1315 446.886 64.3412H451.244L452.772 60.7473C453.002 60.2095 453.777 60.197 454.023 60.7306L456.5 66.1215L458.586 62.0398C458.837 61.5478 459.552 61.5478 459.803 62.0398L460.978 64.3412H466.038C467.89 62.1315 467.8 58.8253 465.728 56.749V56.749Z"/><rect width="156" height="39" x="40" y="45" fill="#EBF9EB" rx="19.5"/><path fill="#0CA750" d="M107.708 72V57.742H105.169V63.6409H98.2326V57.742H95.6833V72H98.2326V65.8443H105.169V72H107.708Z"/><path fill="#0CA750" d="M115.514 62.9196C116.986 62.9196 117.955 63.9472 118.004 65.5479H112.915C113.024 63.9669 114.052 62.9196 115.514 62.9196ZM118.024 69.0259C117.668 69.8262 116.828 70.2709 115.613 70.2709C114.002 70.2709 112.965 69.1445 112.906 67.3462V67.2177H120.454V66.4273C120.454 63.0184 118.607 60.9731 115.524 60.9731C112.392 60.9731 110.445 63.1567 110.445 66.6347C110.445 70.1128 112.362 72.2174 115.544 72.2174C118.093 72.2174 119.881 70.9922 120.346 69.0259H118.024Z"/><path fill="#0CA750" d="M126.61 70.2511C125.523 70.2511 124.743 69.7077 124.743 68.7986C124.743 67.9193 125.385 67.4252 126.758 67.3363L129.199 67.1782V68.0378C129.199 69.2927 128.092 70.2511 126.61 70.2511ZM125.889 72.1779C127.302 72.1779 128.488 71.5653 129.09 70.5179H129.258V72H131.62V64.6191C131.62 62.3267 130.059 60.9731 127.282 60.9731C124.713 60.9731 122.925 62.1884 122.727 64.0954H125.039C125.266 63.3642 126.037 62.969 127.164 62.969C128.488 62.969 129.199 63.5618 129.199 64.6191V65.5281L126.413 65.6961C123.784 65.8542 122.312 66.9806 122.312 68.937C122.312 70.9131 123.804 72.1779 125.889 72.1779Z"/><path fill="#0CA750" d="M134.673 72H137.123V57.0109H134.673V72Z"/><path fill="#0CA750" d="M141.007 58.5424V61.2596H139.297V63.216H141.007V69.1148C141.007 71.2096 141.995 72.0494 144.475 72.0494C144.949 72.0494 145.403 72 145.759 71.9309V70.014C145.463 70.0436 145.275 70.0634 144.929 70.0634C143.902 70.0634 143.447 69.5891 143.447 68.522V63.216H145.759V61.2596H143.447V58.5424H141.007Z"/><path fill="#0CA750" d="M148.308 72H150.759V65.7257C150.759 64.1744 151.658 63.1271 153.269 63.1271C154.691 63.1271 155.442 63.9669 155.442 65.6071V72H157.893V65.0242C157.893 62.4552 156.49 60.9928 154.178 60.9928C152.567 60.9928 151.411 61.724 150.897 62.9393H150.719V57.0109H148.308V72Z"/><path fill="#0CA750" d="M161.647 75.9227C164.068 75.9227 165.224 75.0334 166.143 72.3458L170.046 61.1904H167.457L164.938 69.6286H164.77L162.24 61.1904H159.553L163.416 72.0494L163.288 72.5237C162.971 73.5217 162.389 73.9169 161.351 73.9169C161.183 73.9169 160.817 73.907 160.679 73.8774V75.8832C160.837 75.9128 161.499 75.9227 161.647 75.9227Z"/><path fill="#0CA750" d="M70.1946 63.8325L68.0793 67.9768C67.8239 68.4812 67.0834 68.4646 66.8493 67.9517L64.4276 62.686L63.1507 65.6753H59.1457L66.9131 73.451C67.2153 73.7553 67.7047 73.7553 68.0069 73.451L75.7785 65.6753H71.1352L70.1946 63.8325ZM76.7277 56.749L76.6255 56.6448C74.4336 54.4517 70.8457 54.4517 68.6496 56.6448L67.4621 57.8372L66.2747 56.6489C64.0828 54.4517 60.4907 54.4517 58.2988 56.6489L58.1966 56.749C56.1239 58.8253 56.0345 62.1315 57.8859 64.3412H62.2442L63.7721 60.7473C64.0019 60.2095 64.7766 60.197 65.0234 60.7306L67.5004 66.1215L69.5859 62.0398C69.837 61.5478 70.5521 61.5478 70.8032 62.0398L71.9779 64.3412H77.0384C78.8898 62.1315 78.8004 58.8253 76.7277 56.749V56.749Z"/></svg>